<svg xmlns="http://www.w3.org/2000/svg" viewBox="0 0 24 24" fill="#f9f8f5"><title>Instagram Icon</title><path d="M18,6.61V8.06a.62.62,0,0,1-.62.62H15.94a.61.61,0,0,1-.61-.62V6.61A.61.61,0,0,1,15.94,6h1.45A.61.61,0,0,1,18,6.61Zm-1.13,4.7a4.71,4.71,0,0,1,.05.69,4.92,4.92,0,1,1-9.84,0,4.71,4.71,0,0,1,.05-.69,4.91,4.91,0,0,1,.13-.65H6v6.72a.61.61,0,0,0,.62.61H17.39a.61.61,0,0,0,.61-.61V10.67H16.74A5.31,5.31,0,0,1,16.87,11.31ZM12,15.08A3.08,3.08,0,1,0,8.92,12,3.08,3.08,0,0,0,12,15.08ZM24,0V24H0V0ZM20,5.85A1.85,1.85,0,0,0,18.15,4H5.85A1.85,1.85,0,0,0,4,5.85V18.15A1.85,1.85,0,0,0,5.85,20H18.15A1.85,1.85,0,0,0,20,18.15Z"/></svg>
