<svg xmlns="http://www.w3.org/2000/svg" viewBox="0 0 869.6 57.56" fill="#333">
  <title>Raleigh Provisions Logo</title>
  <path class="cls-1" d="M44.17,52.53l-4.26-1.26-4.25-14.7a10.61,10.61,0,0,0-5.52-6.74C39.48,27.4,41,19.89,41,15.31c0-9-6.06-14-17.08-14H5.64a.8.8,0,0,0-.8.75L4.68,4.52a.8.8,0,0,0,.58.82l4.2,1.2L6.11,51.35.77,52.6a.8.8,0,0,0-.62.73L0,55.79a.8.8,0,0,0,.8.85H19.15a.8.8,0,0,0,.8-.71l.31-2.69a.8.8,0,0,0-.64-.88l-5.14-1L15.83,32l5,.07c2.59.06,5.77.84,6.22,2.83L31.8,56a.8.8,0,0,0,.78.63H43.63a.8.8,0,0,0,.8-.71l.31-2.53A.8.8,0,0,0,44.17,52.53Zm-11.7-35.8c-.33,6.31-3.57,10-8.89,10.06l-1.26,0c-1.93.07-4.47.15-6.21.18l1.57-21.1h6.58C30,6.53,32.81,10.17,32.47,16.73Z"/>
  <path class="cls-1" d="M100.66,52.38l-3.77-1.12L84.32,1.91a.8.8,0,0,0-.78-.61H77.48a.8.8,0,0,0-.75.51L56.93,51.25l-4.29,1.13a.8.8,0,0,0-.6.71l-.23,2.69a.8.8,0,0,0,.8.87H68.81a.8.8,0,0,0,.8-.76l.15-2.69a.8.8,0,0,0-.65-.84l-5.58-1,5.68-14.85H84.67L88,51.3l-5,1.06a.8.8,0,0,0-.64.74l-.15,2.69a.8.8,0,0,0,.8.85h17.27a.8.8,0,0,0,.8-.76l.15-2.69A.8.8,0,0,0,100.66,52.38ZM83.45,31.24H71.21l7.69-19.87Z"/>
  <path class="cls-1" d="M146.16,42.46,143.63,42a.81.81,0,0,0-.9.53l-3,8.62L124,51.92l3.2-45.34,4.51-1.23a.8.8,0,0,0,.59-.73l.15-2.46a.8.8,0,0,0-.8-.85h-16.5a.8.8,0,0,0-.8.75l-.15,2.46a.8.8,0,0,0,.58.82l4.2,1.2-3.36,44.81L110.3,52.6a.8.8,0,0,0-.62.73l-.15,2.46a.8.8,0,0,0,.8.85h34.46a.8.8,0,0,0,.8-.73l1.23-12.59A.8.8,0,0,0,146.16,42.46Z"/>
  <path class="cls-1" d="M195.82,42.46,193.29,42a.81.81,0,0,0-.9.53l-3,8.7-19.43.93,1.56-20.66,11.19.41.7,6.9a.8.8,0,0,0,.8.72h2.46a.8.8,0,0,0,.8-.75l1.3-18.65a.8.8,0,0,0-.8-.86h-3a.81.81,0,0,0-.79.64l-1.4,6.6-11,.4,1.56-21.26,15.41.92,3,8.7a.81.81,0,0,0,.9.53l2.53-.46a.8.8,0,0,0,.66-.87L194.64,2a.8.8,0,0,0-.8-.73h-32.7a.8.8,0,0,0-.8.75l-.15,2.46a.8.8,0,0,0,.58.82l4.2,1.2-3.36,44.81-5.34,1.25a.8.8,0,0,0-.62.73l-.15,2.46a.8.8,0,0,0,.8.85h38.15a.8.8,0,0,0,.8-.73l1.23-12.59A.8.8,0,0,0,195.82,42.46Z"/>
  <path class="cls-1" d="M231.29,1.3H213.94a.8.8,0,0,0-.8.75L213,4.52a.8.8,0,0,0,.58.82l4.2,1.2-3.36,44.81-5.34,1.25a.8.8,0,0,0-.62.73l-.15,2.46a.8.8,0,0,0,.8.85h18.42a.8.8,0,0,0,.8-.71l.31-2.69a.8.8,0,0,0-.64-.88l-5.14-1L226,6.61l5.34-1.26a.8.8,0,0,0,.62-.73l.15-2.46a.8.8,0,0,0-.8-.85Z"/>
  <path class="cls-1" d="M289.62,31.39H271a.8.8,0,0,0-.8.78l-.08,3a.8.8,0,0,0,.7.82l5.83.76-.84,11.58a11.44,11.44,0,0,1-8.5,3.79c-10.25,0-15.24-7.09-15.24-21.68C252.13,15,259,5,269.67,5c3.15,0,8.61,2.48,9.51,4.72l3.22,10.82a.8.8,0,0,0,.87.57l2.46-.31a.8.8,0,0,0,.7-.74l.84-11.74.38-5.07a.8.8,0,0,0-.23-.63s-.41-.41-.9-.82l-.12-.08a5.92,5.92,0,0,0-1.35-.54.8.8,0,0,0-.77.22l-1.85,1.91A24.12,24.12,0,0,0,270.51,0c-16.12,0-28.28,12.79-28.28,29.74,0,17.68,8.63,27.82,23.68,27.82,7.58,0,13.81-2.4,18-6.94a.8.8,0,0,0,.21-.49L285,36.69l4.63-1a.8.8,0,0,0,.63-.74l.15-2.69a.8.8,0,0,0-.8-.85Z"/>
  <path class="cls-1" d="M352.17,1.3H334.83a.8.8,0,0,0-.8.75l-.15,2.46a.8.8,0,0,0,.61.83l4.94,1.22L338,25.71H314.89l1.35-19.1,5.34-1.26a.8.8,0,0,0,.62-.73l.15-2.46a.8.8,0,0,0-.8-.85H304.2a.8.8,0,0,0-.8.75l-.15,2.46a.8.8,0,0,0,.58.82l4.2,1.2-3.36,44.81-5.34,1.25a.8.8,0,0,0-.62.73l-.15,2.46a.8.8,0,0,0,.8.85h18.42a.8.8,0,0,0,.8-.71l.31-2.69a.8.8,0,0,0-.64-.88l-5.14-1,1.43-20.19h23l-1.5,20.19-5.34,1.25a.8.8,0,0,0-.62.73L330,55.79a.8.8,0,0,0,.8.85h17.65a.8.8,0,0,0,.8-.71l.31-2.69a.8.8,0,0,0-.62-.88l-4.39-1,3.13-44.77,4.59-1.25a.8.8,0,0,0,.59-.73L353,2.16a.8.8,0,0,0-.8-.85Z"/>
  <path class="cls-1" d="M414.26,1.3H396.61a.8.8,0,0,0-.8.75l-.15,2.46a.8.8,0,0,0,.58.82l4.2,1.2-3.36,44.81-5.34,1.25a.8.8,0,0,0-.62.73L391,55.79a.8.8,0,0,0,.8.85H410.2a.8.8,0,0,0,.8-.71l.31-2.69a.8.8,0,0,0-.64-.88l-5.14-1,1.26-18.28a29.1,29.1,0,0,0,8.79,1.32c10.5,0,16-9.4,16-18.69C431.57,9.52,429.78,1.3,414.26,1.3ZM423,17.09c-.57,7.4-2.69,10.64-7.81,11.92a38,38,0,0,1-8-.88l1.59-22.22h5.86C420.49,6.87,423.47,10.84,423,17.09Z"/>
  <path class="cls-1" d="M482.57,52.53l-4.26-1.26-4.25-14.7a10.61,10.61,0,0,0-5.52-6.74c9.35-2.44,10.85-10,10.85-14.53,0-9-6.06-14-17.08-14H444a.8.8,0,0,0-.8.75l-.15,2.46a.8.8,0,0,0,.58.82l4.2,1.2-3.36,44.81-5.34,1.25a.8.8,0,0,0-.62.73l-.15,2.46a.8.8,0,0,0,.8.85h18.34a.8.8,0,0,0,.8-.71l.31-2.69a.8.8,0,0,0-.64-.88l-5.14-1L454.23,32l5,.07c2.59.06,5.77.84,6.22,2.83L470.2,56a.8.8,0,0,0,.78.63H482a.8.8,0,0,0,.8-.71l.31-2.53A.81.81,0,0,0,482.57,52.53ZM462,26.79l-1.26,0c-1.93.07-4.47.15-6.21.18l1.57-21.1h6.58c5.79.63,8.56,4.27,8.22,10.82C470.54,23,467.31,26.71,462,26.79Z"/>
  <path class="cls-1" d="M517.88,0c-15,0-25.9,12.54-26,29.82,0,25.74,16.71,27.74,21.83,27.74,15.16,0,26.59-13.87,26.59-32.27C540.33,8.51,532.78,0,517.88,0Zm-2.69,52.11c-5.75,0-13.39-2.18-13.39-21.07C501.8,15.21,507.78,5,517,5,528.55,5,531,15.53,531,24.37,531,35.1,526.69,52.11,515.19,52.11Z"/>
  <path class="cls-1" d="M594.33,1.3h-16.5a.8.8,0,0,0-.8.75l-.15,2.46a.8.8,0,0,0,.64.84l5.61,1.19L568.87,45l-8.81-38.4,5-1a.8.8,0,0,0,.65-.79V4.64L566,2.18a.8.8,0,0,0-.8-.88H547.35a.8.8,0,0,0-.8.75l-.15,2.46a.8.8,0,0,0,.55.81l3.73,1.24L563,56a.8.8,0,0,0,.78.61h6.06a.8.8,0,0,0,.75-.51L590,6.61l4.38-1.27a.81.81,0,0,0,.58-.72l.15-2.46a.8.8,0,0,0-.8-.85Z"/>
  <path class="cls-1" d="M625.1,1.3H607.76a.8.8,0,0,0-.8.75l-.15,2.46a.8.8,0,0,0,.58.82l4.2,1.2-3.36,44.81-5.34,1.25a.8.8,0,0,0-.62.73l-.15,2.46a.8.8,0,0,0,.8.85h18.42a.8.8,0,0,0,.8-.71l.31-2.69a.8.8,0,0,0-.64-.88l-5.14-1L619.8,6.61l5.34-1.26a.8.8,0,0,0,.62-.73l.15-2.46a.8.8,0,0,0-.8-.85Z"/>
  <path class="cls-1" d="M671.55,1.49A4.27,4.27,0,0,0,670.1,1a.8.8,0,0,0-.77.36L668.2,3.08A16.59,16.59,0,0,0,658,0c-8.8,0-17.69,4.4-17.69,14.24,0,7.07,4.47,11.08,13.28,16.42,6.52,4,9.06,7.49,9.06,12.51a8.83,8.83,0,0,1-2.42,6.24,8.33,8.33,0,0,1-6.6,2.86c-2.85,0-6.93-1.68-8.31-4.11l-2.89-10.35a.81.81,0,0,0-.92-.57L639,37.7a.8.8,0,0,0-.66.74l-.92,16a.8.8,0,0,0,.19.57,4.07,4.07,0,0,0,1.25,1,4.17,4.17,0,0,0,1.32.46.81.81,0,0,0,.75-.3l1.52-1.93A19.17,19.17,0,0,0,653,57.56c5.41,0,9.82-1.52,13.13-4.51a14.49,14.49,0,0,0,5-11.11c0-9.77-4.21-14.13-12.51-19.18-7.71-4.69-9.82-6.65-9.82-9.14,0-5.52,4.38-8.41,8.71-8.41a8.33,8.33,0,0,1,8,4.93l2.9,9.24a.81.81,0,0,0,.91.55l2.53-.46a.8.8,0,0,0,.66-.77l.31-9.61.08-6.22a.81.81,0,0,0-.24-.58A5.55,5.55,0,0,0,671.55,1.49Z"/>
  <path class="cls-1" d="M707.15,1.3H689.8a.8.8,0,0,0-.8.75l-.15,2.46a.8.8,0,0,0,.58.82l4.2,1.2-3.36,44.81-5.34,1.25a.8.8,0,0,0-.62.73l-.15,2.46a.8.8,0,0,0,.8.85h18.42a.8.8,0,0,0,.8-.71l.31-2.69a.8.8,0,0,0-.64-.88l-5.14-1,3.13-44.73,5.34-1.26a.8.8,0,0,0,.62-.73L708,2.16a.8.8,0,0,0-.8-.85Z"/>
  <path class="cls-1" d="M743.91,0c-15,0-25.9,12.54-26,29.82,0,25.74,16.71,27.74,21.83,27.74,15.16,0,26.59-13.87,26.59-32.27C766.36,8.51,758.81,0,743.91,0Zm-2.69,52.11c-5.75,0-13.39-2.18-13.39-21.07,0-15.83,6-26.06,15.24-26.06C754.59,5,757,15.53,757,24.37,757,35.1,752.72,52.11,741.23,52.11Z"/>
  <path class="cls-1" d="M826.73,1.3H811.07a.8.8,0,0,0-.8.76l-.15,2.69a.8.8,0,0,0,.65.83l5.15,1-1.73,34.51-20-39.37a.8.8,0,0,0-.72-.44h-14a.8.8,0,0,0-.8.76l-.15,2.69a.8.8,0,0,0,.57.82L783.68,7,781,51.4l-5.21,1a.8.8,0,0,0-.66.74L775,55.79a.8.8,0,0,0,.8.85h16a.8.8,0,0,0,.8-.76l.15-2.69a.8.8,0,0,0-.63-.83l-4.7-1,2.12-41.19,24,46a.8.8,0,0,0,.71.43h3.76a.8.8,0,0,0,.8-.75L822,6.6l4.71-1a.8.8,0,0,0,.63-.74l.15-2.69a.8.8,0,0,0-.8-.85Z"/>
  <path class="cls-1" d="M869.36,2.31a5.55,5.55,0,0,0-1.09-.82A4.27,4.27,0,0,0,866.82,1a.8.8,0,0,0-.77.36l-1.13,1.72A16.59,16.59,0,0,0,854.75,0c-8.8,0-17.69,4.4-17.69,14.24,0,7.07,4.47,11.08,13.28,16.42,6.52,4,9.06,7.49,9.06,12.51A8.83,8.83,0,0,1,857,49.41a8.33,8.33,0,0,1-6.6,2.86c-2.85,0-6.93-1.68-8.31-4.11l-2.89-10.35a.81.81,0,0,0-.92-.57l-2.53.46a.8.8,0,0,0-.66.74l-.92,16a.8.8,0,0,0,.19.57,4.07,4.07,0,0,0,1.25,1,4.17,4.17,0,0,0,1.32.46.81.81,0,0,0,.75-.3l1.52-1.93a19.17,19.17,0,0,0,10.51,3.39c5.41,0,9.82-1.52,13.13-4.51a14.49,14.49,0,0,0,5-11.11c0-9.77-4.21-14.13-12.51-19.18-7.71-4.69-9.82-6.65-9.82-9.14,0-5.52,4.38-8.41,8.71-8.41a8.33,8.33,0,0,1,8,4.93l2.9,9.24a.81.81,0,0,0,.91.55l2.53-.46a.8.8,0,0,0,.66-.77l.31-9.61.08-6.22A.81.81,0,0,0,869.36,2.31Z"/>
</svg>
