<svg xmlns="http://www.w3.org/2000/svg" viewBox="0 0 312 382.41"><defs><style>#logo .cls-1 { fill: #f7f4f1; } #logo .cls-2 { fill: #333; } #logo .cls-3 { fill: #e75b3a; }</style></defs><title>Raleigh Provisions Logo</title><g id="logo"><circle class="cls-1" cx="155.3" cy="191.21" r="152.49" transform="translate(-53.08 322.56) rotate(-83.14)"/><path class="cls-2" d="M204.63,261.42l-30.23-2.9-13.24-45.69c-4-13.31-12.86-18.94-19.64-21.32,31.12-6.4,36-30.22,36-44.51,0-27.12-18.31-42.06-51.55-42.06l-56.87-.15h0A1.4,1.4,0,0,0,67.7,106l-1.2,8.09a1.4,1.4,0,0,0,.19.93L80.55,137.8,72.19,259,55,263a1.4,1.4,0,0,0-1.08,1.27L53.4,272a1.4,1.4,0,0,0,1.39,1.49h0l56.59-.57a1.4,1.4,0,0,0,1.37-1.24l.92-7.91a1.4,1.4,0,0,0-1.12-1.53L95.8,259l4.29-61.55,16.4.21c8.77.21,18.68,2.83,20.2,9.55l14.52,64.29a1.33,1.33,0,0,0,1.38,1.09l51.46-.65a1.4,1.4,0,0,0,1.38-1.31l.46-7.67A1.4,1.4,0,0,0,204.63,261.42Zm-51.2-110c-1,20.1-11.39,31.78-28.44,32l-3.74.13c-6.46.23-15.1.53-20.48.58l5-67.21h21.33C145.38,118.91,154.5,130.83,153.43,151.43Z"/> <path class="cls-2" d="M227,129.11l-42.95,1.32a1.4,1.4,0,0,0-1.35,1.31l-.37,6a1.4,1.4,0,0,0,.43,1.1l10.34,9.86L186,252.57a1.4,1.4,0,0,0,1.27,1.49l16.23,1.5h.13a1.4,1.4,0,0,0,1.39-1.3l3.15-46.53c4.11-.05,17-.24,23.62-.68,23.5-1.56,38-17.72,37.87-42.18C269.51,141.81,254.4,129.11,227,129.11Zm24.36,38c-1.68,22-13.1,27.06-19.76,28.14a90,90,0,0,1-13.93,1,70.55,70.55,0,0,1-8.66-.45L213,140.48l16.1.11C245.09,142.75,252.59,151.68,251.38,167.13Z"/><path class="cls-2" d="M279.65,120.64a1.4,1.4,0,0,0-2.1-.37l-2.34,1.94a1.39,1.39,0,0,0-.38,1.66A140.15,140.15,0,0,1,147.5,322.13a141.56,141.56,0,0,1-22.91-1.88,138.74,138.74,0,0,1-58-23.76,1.4,1.4,0,0,0-1.7.06l-2.2,1.83a1.4,1.4,0,0,0,0,2.13,142.59,142.59,0,0,0,70.2,32.83,144.43,144.43,0,0,0,23.36,1.92A142.93,142.93,0,0,0,279.65,120.64Z"/><path class="cls-2" d="M108.7,95.52,2.33.36A1.4,1.4,0,0,0,.16,2.05L57,109.6a1.4,1.4,0,0,0,1.23.74l.23,0a1.4,1.4,0,0,0,1.15-1.15L61.42,98l46.35,0a1.4,1.4,0,0,0,.93-2.44Z"/><path class="cls-3" d="M311.78,380.26,217,232.31a1.4,1.4,0,0,0-2.57.69l-1.92,45.43-23.75.49a1.4,1.4,0,0,0-.86,2.47l121.8,100.7a1.4,1.4,0,0,0,2.07-1.83Z"/></g></svg>
